<svg xmlns="http://www.w3.org/2000/svg" viewBox="0 0 120 100" width="120" height="100">
  <defs>
    <radialGradient id="bgGrad" cx="50%" cy="50%" r="50%">
      <stop offset="0%" stop-color="#3b82f6" stop-opacity="0.3"/>
      <stop offset="100%" stop-color="#3b82f6" stop-opacity="0"/>
    </radialGradient>
  </defs>
  <circle cx="60" cy="50" r="45" fill="url(#bgGrad)"/>
  <!-- Cardinals -->
  <path d="M55 15 L60 5 L65 15" stroke="#60a5fa" stroke-width="3" stroke-linecap="round" stroke-linejoin="round" fill="none"/>
  <path d="M55 85 L60 95 L65 85" stroke="#60a5fa" stroke-width="3" stroke-linecap="round" stroke-linejoin="round" fill="none"/>
  <path d="M15 45 L5 50 L15 55" stroke="#60a5fa" stroke-width="3" stroke-linecap="round" stroke-linejoin="round" fill="none"/>
  <path d="M105 45 L115 50 L105 55" stroke="#60a5fa" stroke-width="3" stroke-linecap="round" stroke-linejoin="round" fill="none"/>
  <!-- Diagonals -->
  <path d="M95 12 L102 5 L109 12" stroke="#60a5fa" stroke-width="2.5" stroke-linecap="round" stroke-linejoin="round" fill="none" opacity="0.6" transform="rotate(45, 102, 8)"/>
  <path d="M95 88 L102 95 L109 88" stroke="#60a5fa" stroke-width="2.5" stroke-linecap="round" stroke-linejoin="round" fill="none" opacity="0.6" transform="rotate(-45, 102, 92)"/>
  <path d="M11 12 L18 5 L25 12" stroke="#60a5fa" stroke-width="2.5" stroke-linecap="round" stroke-linejoin="round" fill="none" opacity="0.6" transform="rotate(-45, 18, 8)"/>
  <path d="M11 88 L18 95 L25 88" stroke="#60a5fa" stroke-width="2.5" stroke-linecap="round" stroke-linejoin="round" fill="none" opacity="0.6" transform="rotate(45, 18, 92)"/>
  <!-- Font Awesome gear as stroke outline -->
  <g transform="translate(60, 50) scale(0.09)" fill="none" stroke="#60a5fa" stroke-width="18">
    <path d="M495.9 166.6c3.2 8.7 .5 18.4-6.4 24.6l-43.3 39.4c1.1 8.3 1.7 16.8 1.7 25.4s-.6 17.1-1.7 25.4l43.3 39.4c6.9 6.2 9.6 15.9 6.4 24.6c-4.4 11.9-9.7 23.3-15.8 34.3l-4.7 8.1c-6.6 11-14 21.4-22.1 31.2c-5.9 7.2-15.7 9.6-24.5 6.8l-55.7-17.7c-13.4 10.3-28.2 18.9-44 25.4l-12.5 57.1c-2 9.1-9 16.3-18.2 17.8c-13.8 2.3-28 3.5-42.5 3.5s-28.7-1.2-42.5-3.5c-9.2-1.5-16.2-8.7-18.2-17.8l-12.5-57.1c-15.8-6.5-30.6-15.1-44-25.4L83.1 425.9c-8.8 2.8-18.6 .3-24.5-6.8c-8.1-9.8-15.5-20.2-22.1-31.2l-4.7-8.1c-6.1-11-11.4-22.4-15.8-34.3c-3.2-8.7-.5-18.4 6.4-24.6l43.3-39.4C64.6 273.1 64 264.6 64 256s.6-17.1 1.7-25.4L22.4 191.2c-6.9-6.2-9.6-15.9-6.4-24.6c4.4-11.9 9.7-23.3 15.8-34.3l4.7-8.1c6.6-11 14-21.4 22.1-31.2c5.9-7.2 15.7-9.6 24.5-6.8l55.7 17.7c13.4-10.3 28.2-18.9 44-25.4l12.5-57.1c2-9.1 9-16.3 18.2-17.8C227.3 1.2 241.5 0 256 0s28.7 1.2 42.5 3.5c9.2 1.5 16.2 8.7 18.2 17.8l12.5 57.1c15.8 6.5 30.6 15.1 44 25.4l55.7-17.7c8.8-2.8 18.6-.3 24.5 6.8c8.1 9.8 15.5 20.2 22.1 31.2l4.7 8.1c6.1 11 11.4 22.4 15.8 34.3zM256 336a80 80 0 1 0 0-160 80 80 0 1 0 0 160z" transform="translate(-256, -256)"/>
  </g>
</svg>
